<svg xmlns="http://www.w3.org/2000/svg" width="24" height="24" viewBox="0 0 24 24" fill="none">
<path d="M18.5981 10.2965C19.3036 10.1816 19.9422 9.78891 20.386 9.19691C20.8298 8.60491 21.0462 7.85729 20.9917 7.10365C20.9373 6.35 20.6161 5.64591 20.0924 5.13226C19.5688 4.6186 18.8812 4.33326 18.1674 4.33333H17.222V3C17.2218 2.73488 17.1222 2.4807 16.9451 2.29323C16.768 2.10576 16.528 2.00031 16.2776 2H4.94443C4.69404 2.00031 4.45399 2.10576 4.27694 2.29323C4.09989 2.4807 4.00029 2.73488 4 3V7.33333C4.00029 7.59846 4.09989 7.85263 4.27694 8.0401C4.45399 8.22757 4.69404 8.33302 4.94443 8.33333H16.2776C16.528 8.33302 16.768 8.22757 16.9451 8.0401C17.1222 7.85263 17.2218 7.59846 17.222 7.33333V5.66667H18.1674C18.5638 5.66667 18.9457 5.82518 19.2365 6.11047C19.5273 6.39576 19.7057 6.7868 19.7359 7.20536C19.7662 7.62392 19.646 8.03913 19.3995 8.36793C19.1531 8.69673 18.7984 8.91487 18.4066 8.97871L11.5555 10.0947V13H9.35178V22H15.0184V13H12.8147V11.2386L18.5981 10.2965ZM15.9628 7H5.25924V3.33333H15.9628V7ZM13.7591 14.3333V20.6667H10.611V14.3333H13.7591Z" fill="#0E5875"/>
</svg>