<svg xmlns="http://www.w3.org/2000/svg" width="24" height="24" viewBox="0 0 24 24" fill="none">
  <g clip-path="url(#clip0_145_1432)">
    <path d="M13.3333 9.33331H10.6667C10.4899 9.33331 10.3203 9.40355 10.1953 9.52858C10.0702 9.6536 10 9.82317 10 9.99998V14C10 14.1768 10.0702 14.3464 10.1953 14.4714C10.3203 14.5964 10.4899 14.6666 10.6667 14.6666H13.3333C13.5101 14.6666 13.6797 14.5964 13.8047 14.4714C13.9298 14.3464 14 14.1768 14 14V9.99998C14 9.82317 13.9298 9.6536 13.8047 9.52858C13.6797 9.40355 13.5101 9.33331 13.3333 9.33331ZM13.0667 13.7333H10.9333V10.2666H13.0667V13.7333Z" fill="#0E5875"/>
    <path d="M22.4733 8.25335L19.7467 5.52669C19.6225 5.40352 19.4549 5.33409 19.28 5.33335H15.9467V4.03335C15.9557 3.68306 15.8265 3.34328 15.5869 3.08752C15.3474 2.83177 15.0168 2.68059 14.6667 2.66669H9.22666C9.05555 2.67342 8.88754 2.71442 8.73256 2.78725C8.57758 2.86008 8.4388 2.96327 8.32442 3.09071C8.21003 3.21814 8.12239 3.36723 8.06666 3.52915C8.01094 3.69107 7.98826 3.86252 7.99999 4.03335V5.33335H4.71999C4.63225 5.33285 4.54528 5.34966 4.46405 5.38284C4.38283 5.41602 4.30895 5.4649 4.24666 5.52669L1.52666 8.25335C1.46487 8.31565 1.41599 8.38952 1.38281 8.47075C1.34963 8.55197 1.33282 8.63895 1.33332 8.72669V18.6667C1.33332 19.0203 1.4738 19.3594 1.72385 19.6095C1.9739 19.8595 2.31304 20 2.66666 20H21.3333C21.6869 20 22.0261 19.8595 22.2761 19.6095C22.5262 19.3594 22.6667 19.0203 22.6667 18.6667V8.72002C22.6659 8.54513 22.5965 8.37753 22.4733 8.25335ZM9.33332 4.00002H14.6667V5.33335H9.33332V4.00002ZM21.3333 11.3334H14.6667V12.62H21.3333V18.6667H2.66666V12.62H9.33332V11.3334H2.66666V9.00002L4.99999 6.66669H19L21.3333 9.00002V11.3334Z" fill="#0E5875"/>
  </g>
  <defs>
    <clipPath id="clip0_145_1432">
      <rect width="24" height="24" fill="white"/>
    </clipPath>
  </defs>
</svg>